<mxfile host="app.diagrams.net" modified="2022-05-22T07:17:36.730Z" agent="5.0 (Macintosh; Intel Mac OS X 10_15_7) AppleWebKit/537.36 (KHTML, like Gecko) Chrome/101.0.4951.64 Safari/537.36" etag="1RX-km_MzsFoJWn9E7wf" version="18.0.5" type="github">
  <diagram id="3228e29e-7158-1315-38df-8450db1d8a1d" name="Page-1">
    <mxGraphModel dx="493" dy="-122" grid="0" gridSize="10" guides="1" tooltips="1" connect="1" arrows="1" fold="1" page="1" pageScale="1" pageWidth="450" pageHeight="320" background="#EFF1F3" math="0" shadow="0">
      <root>
        <mxCell id="0" />
        <mxCell id="1" parent="0" />
        <mxCell id="yyw1uqhGUR_v7xHCsKaX-17" value="&lt;font color=&quot;#ffffff&quot; style=&quot;font-size: 17px;&quot;&gt;&lt;span style=&quot;font-size: 17px;&quot;&gt;&lt;br style=&quot;font-size: 17px;&quot;&gt;&lt;/span&gt;&lt;/font&gt;" style="whiteSpace=wrap;html=1;aspect=fixed;rounded=1;strokeColor=none;fillColor=#535E80;fontSize=17;" parent="1" vertex="1">
          <mxGeometry x="308" y="1005" width="122" height="122" as="geometry" />
        </mxCell>
        <mxCell id="yyw1uqhGUR_v7xHCsKaX-19" value="&lt;font color=&quot;#ffffff&quot; style=&quot;font-size: 17px;&quot;&gt;user0&lt;/font&gt;" style="text;html=1;strokeColor=none;fillColor=none;align=center;verticalAlign=middle;whiteSpace=wrap;rounded=0;dashed=1;fontColor=#535E80;fontSize=17;" parent="1" vertex="1">
          <mxGeometry x="344" y="1013" width="55" height="22" as="geometry" />
        </mxCell>
        <mxCell id="GSjFHF2CIG4gb6S8epUb-2" value="" style="rounded=1;whiteSpace=wrap;html=1;fillColor=#E6D7C2;strokeColor=none;fontSize=17;" parent="1" vertex="1">
          <mxGeometry x="31" y="1005" width="127" height="257" as="geometry" />
        </mxCell>
        <mxCell id="GSjFHF2CIG4gb6S8epUb-7" value="数据" style="rounded=1;whiteSpace=wrap;html=1;fillColor=#9AC7BF;strokeColor=default;fontColor=#000000;align=center;fontSize=13;" parent="1" vertex="1">
          <mxGeometry x="84" y="1090.9299999999998" width="66" height="24" as="geometry" />
        </mxCell>
        <mxCell id="GSjFHF2CIG4gb6S8epUb-8" value="&lt;font style=&quot;font-size: 13px;&quot;&gt;3&lt;/font&gt;" style="rounded=1;whiteSpace=wrap;html=1;fillColor=#9AC7BF;strokeColor=default;fontColor=#000000;fontSize=13;" parent="1" vertex="1">
          <mxGeometry x="42" y="1090.9299999999998" width="42" height="24" as="geometry" />
        </mxCell>
        <mxCell id="GSjFHF2CIG4gb6S8epUb-27" value="&lt;font color=&quot;#5c5c5c&quot; style=&quot;font-size: 17px;&quot;&gt;user&lt;/font&gt;" style="text;html=1;strokeColor=none;fillColor=none;align=center;verticalAlign=middle;whiteSpace=wrap;rounded=0;dashed=1;fontColor=#535E80;fontSize=17;" parent="1" vertex="1">
          <mxGeometry x="64.5" y="1013" width="55" height="22" as="geometry" />
        </mxCell>
        <mxCell id="GSjFHF2CIG4gb6S8epUb-32" value="&lt;span style=&quot;font-size: 17px;&quot;&gt;&lt;b style=&quot;&quot;&gt;&lt;font color=&quot;#5c5c5c&quot;&gt;根据id取模分表&lt;/font&gt;&lt;/b&gt;&lt;/span&gt;" style="text;html=1;strokeColor=none;fillColor=none;align=center;verticalAlign=middle;whiteSpace=wrap;rounded=0;" parent="1" vertex="1">
          <mxGeometry x="164.5" y="938" width="123" height="31" as="geometry" />
        </mxCell>
        <mxCell id="GSjFHF2CIG4gb6S8epUb-42" value="" style="shape=image;html=1;verticalAlign=top;verticalLabelPosition=bottom;labelBackgroundColor=#ffffff;imageAspect=0;aspect=fixed;image=https://cdn1.iconfinder.com/data/icons/ionicons-outline-vol-1/512/cut-outline-128.png;fontSize=13;fontColor=#535E80;fillColor=#4A919B;" parent="1" vertex="1">
          <mxGeometry x="81.44" y="1124.8700000000001" width="26.13" height="26.13" as="geometry" />
        </mxCell>
        <mxCell id="SW3bWeaWtJsJV6UMWV42-4" value="&lt;font style=&quot;font-size: 16px;&quot; color=&quot;#535e80&quot;&gt;&lt;b&gt;id%2=0&lt;/b&gt;&lt;/font&gt;" style="text;html=1;strokeColor=none;fillColor=none;align=center;verticalAlign=middle;whiteSpace=wrap;rounded=0;fontSize=17;" parent="1" vertex="1">
          <mxGeometry x="174" y="1086" width="104" height="41" as="geometry" />
        </mxCell>
        <mxCell id="SW3bWeaWtJsJV6UMWV42-6" value="" style="shape=flexArrow;endArrow=classic;html=1;rounded=0;strokeColor=none;fillColor=#E6D7C2;fontSize=17;" parent="1" edge="1">
          <mxGeometry width="50" height="50" relative="1" as="geometry">
            <mxPoint x="190" y="1133.1299999999999" as="sourcePoint" />
            <mxPoint x="273" y="1133.3799999999999" as="targetPoint" />
          </mxGeometry>
        </mxCell>
        <mxCell id="snNPx92-vVBy3uUKYPBh-11" value="数据" style="rounded=1;whiteSpace=wrap;html=1;fillColor=#9AA4C0;strokeColor=default;fontColor=#000000;align=center;fontSize=13;fontStyle=0" parent="1" vertex="1">
          <mxGeometry x="84" y="1066.9299999999998" width="66" height="24" as="geometry" />
        </mxCell>
        <mxCell id="snNPx92-vVBy3uUKYPBh-12" value="&lt;font style=&quot;font-size: 13px;&quot;&gt;2&lt;/font&gt;" style="rounded=1;whiteSpace=wrap;html=1;fillColor=#9AA4C0;strokeColor=default;fontColor=#000000;fontSize=13;fontStyle=0" parent="1" vertex="1">
          <mxGeometry x="42" y="1066.9299999999998" width="42" height="24" as="geometry" />
        </mxCell>
        <mxCell id="snNPx92-vVBy3uUKYPBh-13" value="数据" style="rounded=1;whiteSpace=wrap;html=1;fillColor=#9AC7BF;strokeColor=default;fontColor=#000000;align=center;fontSize=13;" parent="1" vertex="1">
          <mxGeometry x="84" y="1042.9299999999998" width="66" height="24" as="geometry" />
        </mxCell>
        <mxCell id="snNPx92-vVBy3uUKYPBh-14" value="&lt;font style=&quot;font-size: 13px;&quot;&gt;1&lt;/font&gt;" style="rounded=1;whiteSpace=wrap;html=1;fillColor=#9AC7BF;strokeColor=default;fontColor=#000000;fontSize=13;" parent="1" vertex="1">
          <mxGeometry x="42" y="1042.9299999999998" width="42" height="24" as="geometry" />
        </mxCell>
        <mxCell id="snNPx92-vVBy3uUKYPBh-15" value="数据" style="rounded=1;whiteSpace=wrap;html=1;fillColor=#9AA4C0;strokeColor=default;fontColor=#000000;align=center;fontSize=13;" parent="1" vertex="1">
          <mxGeometry x="83.5" y="1216" width="66" height="24" as="geometry" />
        </mxCell>
        <mxCell id="snNPx92-vVBy3uUKYPBh-16" value="&lt;font style=&quot;font-size: 13px;&quot;&gt;6&lt;/font&gt;" style="rounded=1;whiteSpace=wrap;html=1;fillColor=#9AA4C0;strokeColor=default;fontColor=#000000;fontSize=13;" parent="1" vertex="1">
          <mxGeometry x="41.5" y="1216" width="42" height="24" as="geometry" />
        </mxCell>
        <mxCell id="snNPx92-vVBy3uUKYPBh-17" value="数据" style="rounded=1;whiteSpace=wrap;html=1;fillColor=#9AC7BF;strokeColor=default;fontColor=#000000;align=center;fontSize=13;fontStyle=0" parent="1" vertex="1">
          <mxGeometry x="83.5" y="1192" width="66" height="24" as="geometry" />
        </mxCell>
        <mxCell id="snNPx92-vVBy3uUKYPBh-18" value="&lt;font style=&quot;font-size: 13px;&quot;&gt;5&lt;/font&gt;" style="rounded=1;whiteSpace=wrap;html=1;fillColor=#9AC7BF;strokeColor=default;fontColor=#000000;fontSize=13;fontStyle=0" parent="1" vertex="1">
          <mxGeometry x="41.5" y="1192" width="42" height="24" as="geometry" />
        </mxCell>
        <mxCell id="snNPx92-vVBy3uUKYPBh-19" value="数据" style="rounded=1;whiteSpace=wrap;html=1;fillColor=#9AA4C0;strokeColor=default;fontColor=#000000;align=center;fontSize=13;" parent="1" vertex="1">
          <mxGeometry x="83.5" y="1168" width="66" height="24" as="geometry" />
        </mxCell>
        <mxCell id="snNPx92-vVBy3uUKYPBh-20" value="4" style="rounded=1;whiteSpace=wrap;html=1;fillColor=#9AA4C0;strokeColor=default;fontColor=#000000;fontSize=13;" parent="1" vertex="1">
          <mxGeometry x="41.5" y="1168" width="42" height="24" as="geometry" />
        </mxCell>
        <mxCell id="snNPx92-vVBy3uUKYPBh-21" value="数据" style="rounded=1;whiteSpace=wrap;html=1;fillColor=#9AA4C0;strokeColor=default;fontColor=#000000;align=center;fontSize=13;" parent="1" vertex="1">
          <mxGeometry x="358" y="1089.9299999999998" width="66" height="24" as="geometry" />
        </mxCell>
        <mxCell id="snNPx92-vVBy3uUKYPBh-22" value="&lt;font style=&quot;font-size: 13px;&quot;&gt;6&lt;/font&gt;" style="rounded=1;whiteSpace=wrap;html=1;fillColor=#9AA4C0;strokeColor=default;fontColor=#000000;fontSize=13;" parent="1" vertex="1">
          <mxGeometry x="316" y="1089.9299999999998" width="42" height="24" as="geometry" />
        </mxCell>
        <mxCell id="snNPx92-vVBy3uUKYPBh-23" value="&lt;span style=&quot;font-weight: 400;&quot;&gt;数据&lt;/span&gt;" style="rounded=1;whiteSpace=wrap;html=1;fillColor=#9AA4C0;strokeColor=default;fontColor=#000000;align=center;fontSize=13;fontStyle=1" parent="1" vertex="1">
          <mxGeometry x="358" y="1065.9299999999998" width="66" height="24" as="geometry" />
        </mxCell>
        <mxCell id="snNPx92-vVBy3uUKYPBh-24" value="&lt;font style=&quot;font-size: 13px;&quot;&gt;4&lt;/font&gt;" style="rounded=1;whiteSpace=wrap;html=1;fillColor=#9AA4C0;strokeColor=default;fontColor=#000000;fontSize=13;fontStyle=0" parent="1" vertex="1">
          <mxGeometry x="316" y="1065.9299999999998" width="42" height="24" as="geometry" />
        </mxCell>
        <mxCell id="snNPx92-vVBy3uUKYPBh-25" value="数据" style="rounded=1;whiteSpace=wrap;html=1;fillColor=#9AA4C0;strokeColor=default;fontColor=#000000;align=center;fontSize=13;" parent="1" vertex="1">
          <mxGeometry x="358" y="1041.9299999999998" width="66" height="24" as="geometry" />
        </mxCell>
        <mxCell id="snNPx92-vVBy3uUKYPBh-26" value="&lt;font style=&quot;font-size: 13px;&quot;&gt;2&lt;/font&gt;" style="rounded=1;whiteSpace=wrap;html=1;fillColor=#9AA4C0;strokeColor=default;fontColor=#000000;fontSize=13;" parent="1" vertex="1">
          <mxGeometry x="316" y="1041.9299999999998" width="42" height="24" as="geometry" />
        </mxCell>
        <mxCell id="snNPx92-vVBy3uUKYPBh-27" value="&lt;font color=&quot;#ffffff&quot; style=&quot;font-size: 17px;&quot;&gt;&lt;span style=&quot;font-size: 17px;&quot;&gt;&lt;br style=&quot;font-size: 17px;&quot;&gt;&lt;/span&gt;&lt;/font&gt;" style="whiteSpace=wrap;html=1;aspect=fixed;rounded=1;strokeColor=none;fillColor=#4A919B;fontSize=17;" parent="1" vertex="1">
          <mxGeometry x="308" y="1143" width="122" height="122" as="geometry" />
        </mxCell>
        <mxCell id="snNPx92-vVBy3uUKYPBh-28" value="&lt;font color=&quot;#ffffff&quot; style=&quot;font-size: 17px;&quot;&gt;user1&lt;/font&gt;" style="text;html=1;strokeColor=none;fillColor=none;align=center;verticalAlign=middle;whiteSpace=wrap;rounded=0;dashed=1;fontColor=#535E80;fontSize=17;" parent="1" vertex="1">
          <mxGeometry x="344" y="1151" width="55" height="22" as="geometry" />
        </mxCell>
        <mxCell id="snNPx92-vVBy3uUKYPBh-35" value="数据" style="rounded=1;whiteSpace=wrap;html=1;fillColor=#9AC7BF;strokeColor=default;fontColor=#000000;align=center;fontSize=13;" parent="1" vertex="1">
          <mxGeometry x="357" y="1228" width="66" height="24" as="geometry" />
        </mxCell>
        <mxCell id="snNPx92-vVBy3uUKYPBh-36" value="5" style="rounded=1;whiteSpace=wrap;html=1;fillColor=#9AC7BF;strokeColor=default;fontColor=#000000;fontSize=13;" parent="1" vertex="1">
          <mxGeometry x="315" y="1228" width="42" height="24" as="geometry" />
        </mxCell>
        <mxCell id="snNPx92-vVBy3uUKYPBh-37" value="&lt;span style=&quot;font-weight: 400;&quot;&gt;数据&lt;/span&gt;" style="rounded=1;whiteSpace=wrap;html=1;fillColor=#9AC7BF;strokeColor=default;fontColor=#000000;align=center;fontSize=13;fontStyle=1" parent="1" vertex="1">
          <mxGeometry x="357" y="1204" width="66" height="24" as="geometry" />
        </mxCell>
        <mxCell id="snNPx92-vVBy3uUKYPBh-38" value="&lt;font style=&quot;font-size: 13px;&quot;&gt;3&lt;/font&gt;" style="rounded=1;whiteSpace=wrap;html=1;fillColor=#9AC7BF;strokeColor=default;fontColor=#000000;fontSize=13;fontStyle=0" parent="1" vertex="1">
          <mxGeometry x="315" y="1204" width="42" height="24" as="geometry" />
        </mxCell>
        <mxCell id="snNPx92-vVBy3uUKYPBh-39" value="数据" style="rounded=1;whiteSpace=wrap;html=1;fillColor=#9AC7BF;strokeColor=default;fontColor=#000000;align=center;fontSize=13;" parent="1" vertex="1">
          <mxGeometry x="357" y="1180" width="66" height="24" as="geometry" />
        </mxCell>
        <mxCell id="snNPx92-vVBy3uUKYPBh-40" value="1" style="rounded=1;whiteSpace=wrap;html=1;fillColor=#9AC7BF;strokeColor=default;fontColor=#000000;fontSize=13;" parent="1" vertex="1">
          <mxGeometry x="315" y="1180" width="42" height="24" as="geometry" />
        </mxCell>
        <mxCell id="5fC5gDBy98ma0zf9WOWx-1" value="&lt;font style=&quot;font-size: 16px;&quot; color=&quot;#4a919b&quot;&gt;&lt;b&gt;id%2=1&lt;/b&gt;&lt;/font&gt;" style="text;html=1;strokeColor=none;fillColor=none;align=center;verticalAlign=middle;whiteSpace=wrap;rounded=0;fontSize=17;" vertex="1" parent="1">
          <mxGeometry x="173" y="1139" width="104" height="41" as="geometry" />
        </mxCell>
      </root>
    </mxGraphModel>
  </diagram>
</mxfile>
